<?xml version="1.0" encoding="UTF-8" standalone="no"?>
<!DOCTYPE svg PUBLIC "-//W3C//DTD SVG 1.1//EN"
 "http://www.w3.org/Graphics/SVG/1.1/DTD/svg11.dtd">
<!-- Generated by graphviz version 2.47.0 (20210316.0004)
 -->
<!-- Title: dependencies Pages: 1 -->
<svg width="890pt" height="298pt"
 viewBox="0.00 0.00 890.00 298.00" xmlns="http://www.w3.org/2000/svg" xmlns:xlink="http://www.w3.org/1999/xlink">
<g id="graph0" class="graph" transform="scale(1 1) rotate(0) translate(4 294)">
<title>dependencies</title>
<polygon fill="white" stroke="transparent" points="-4,4 -4,-294 886,-294 886,4 -4,4"/>
<text text-anchor="start" x="420.01" y="-42.4" font-family="Times-12" font-weight="bold" font-size="14.00">Legend</text>
<polygon fill="#ffffb3" stroke="transparent" points="207,-10 207,-30 227,-30 227,-10 207,-10"/>
<text text-anchor="start" x="230.63" y="-15.4" font-family="Times-12" font-size="14.00"> &#160;Declarations</text>
<polygon fill="#8dd3c7" stroke="transparent" points="320,-10 320,-30 340,-30 340,-10 320,-10"/>
<text text-anchor="start" x="343.73" y="-15.4" font-family="Times-12" font-size="14.00"> &#160;Module</text>
<polygon fill="#80b1d3" stroke="transparent" points="406,-10 406,-30 426,-30 426,-10 406,-10"/>
<text text-anchor="start" x="429.78" y="-15.4" font-family="Times-12" font-size="14.00"> &#160;Bootstrap</text>
<polygon fill="#fdb462" stroke="transparent" points="503,-10 503,-30 523,-30 523,-10 503,-10"/>
<text text-anchor="start" x="526.67" y="-15.4" font-family="Times-12" font-size="14.00"> &#160;Providers</text>
<polygon fill="#fb8072" stroke="transparent" points="599,-10 599,-30 619,-30 619,-10 599,-10"/>
<text text-anchor="start" x="622.73" y="-15.4" font-family="Times-12" font-size="14.00"> &#160;Exports</text>
<g id="clust1" class="cluster">
<title>cluster_AppModule</title>
<polygon fill="none" stroke="black" stroke-dasharray="1,5" points="168,-70 168,-274 434,-274 434,-70 168,-70"/>
</g>
<g id="clust3" class="cluster">
<title>cluster_AppModule_imports</title>
<polygon fill="none" stroke="black" points="314,-78 314,-206 416,-206 416,-78 314,-78"/>
</g>
<g id="clust6" class="cluster">
<title>cluster_AppModule_providers</title>
<polygon fill="none" stroke="black" points="176,-154 176,-206 306,-206 306,-154 176,-154"/>
</g>
<g id="clust7" class="cluster">
<title>cluster_AuthtModule</title>
<polygon fill="none" stroke="black" stroke-dasharray="1,5" points="724,-70 724,-282 874,-282 874,-70 724,-70"/>
</g>
<g id="clust10" class="cluster">
<title>cluster_AuthtModule_exports</title>
<polygon fill="none" stroke="black" points="746,-222 746,-274 852,-274 852,-222 746,-222"/>
</g>
<g id="clust12" class="cluster">
<title>cluster_AuthtModule_providers</title>
<polygon fill="none" stroke="black" points="732,-78 732,-130 866,-130 866,-78 732,-78"/>
</g>
<g id="clust13" class="cluster">
<title>cluster_PostModule</title>
<polygon fill="none" stroke="black" stroke-dasharray="1,5" points="8,-70 8,-138 160,-138 160,-70 8,-70"/>
</g>
<g id="clust18" class="cluster">
<title>cluster_PostModule_providers</title>
<polygon fill="none" stroke="black" points="16,-78 16,-130 152,-130 152,-78 16,-78"/>
</g>
<g id="clust19" class="cluster">
<title>cluster_UserModule</title>
<polygon fill="none" stroke="black" stroke-dasharray="1,5" points="442,-146 442,-214 716,-214 716,-146 442,-146"/>
</g>
<g id="clust22" class="cluster">
<title>cluster_UserModule_exports</title>
<polygon fill="none" stroke="black" points="598,-154 598,-206 708,-206 708,-154 598,-154"/>
</g>
<g id="clust24" class="cluster">
<title>cluster_UserModule_providers</title>
<polygon fill="none" stroke="black" points="450,-154 450,-206 590,-206 590,-154 450,-154"/>
</g>
<!-- PostModule -->
<g id="node1" class="node">
<title>PostModule</title>
<polygon fill="#8dd3c7" stroke="black" points="405.67,-198 402.67,-202 381.67,-202 378.67,-198 322.33,-198 322.33,-162 405.67,-162 405.67,-198"/>
<text text-anchor="middle" x="364" y="-175.8" font-family="Times,serif" font-size="14.00">PostModule</text>
</g>
<!-- AppModule -->
<g id="node3" class="node">
<title>AppModule</title>
<polygon fill="#8dd3c7" stroke="black" points="405.66,-266 402.66,-270 381.66,-270 378.66,-266 322.34,-266 322.34,-230 405.66,-230 405.66,-266"/>
<text text-anchor="middle" x="364" y="-243.8" font-family="Times,serif" font-size="14.00">AppModule</text>
</g>
<!-- PostModule&#45;&gt;AppModule -->
<g id="edge1" class="edge">
<title>PostModule&#45;&gt;AppModule</title>
<path fill="none" stroke="black" d="M364,-198.22C364,-198.22 364,-219.73 364,-219.73"/>
<polygon fill="black" stroke="black" points="360.5,-219.73 364,-229.73 367.5,-219.73 360.5,-219.73"/>
</g>
<!-- UserModule -->
<g id="node2" class="node">
<title>UserModule</title>
<polygon fill="#8dd3c7" stroke="black" points="407.98,-122 404.98,-126 383.98,-126 380.98,-122 322.02,-122 322.02,-86 407.98,-86 407.98,-122"/>
<text text-anchor="middle" x="365" y="-99.8" font-family="Times,serif" font-size="14.00">UserModule</text>
</g>
<!-- UserModule&#45;&gt;PostModule -->
<g id="edge6" class="edge">
<title>UserModule&#45;&gt;PostModule</title>
<path fill="none" stroke="black" d="M364,-122.01C364,-122.01 364,-151.85 364,-151.85"/>
<polygon fill="black" stroke="black" points="360.5,-151.85 364,-161.85 367.5,-151.85 360.5,-151.85"/>
</g>
<!-- UserModule&#45;&gt;AppModule -->
<g id="edge2" class="edge">
<title>UserModule&#45;&gt;AppModule</title>
<path fill="none" stroke="black" d="M321.94,-110C312.75,-110 305.75,-110 305.75,-110 305.75,-110 305.75,-242 305.75,-242 305.75,-242 312.29,-242 312.29,-242"/>
<polygon fill="black" stroke="black" points="312.29,-245.5 322.29,-242 312.29,-238.5 312.29,-245.5"/>
</g>
<!-- UsersService  -->
<g id="node9" class="node">
<title>UsersService </title>
<polygon fill="#fb8072" stroke="black" points="699.85,-198 606.15,-198 606.15,-162 699.85,-162 699.85,-198"/>
<text text-anchor="middle" x="653" y="-175.8" font-family="Times,serif" font-size="14.00">UsersService </text>
</g>
<!-- UserModule&#45;&gt;UsersService  -->
<g id="edge8" class="edge">
<title>UserModule&#45;&gt;UsersService </title>
<path fill="none" stroke="black" stroke-dasharray="5,2" d="M408.12,-98C488.46,-98 653,-98 653,-98 653,-98 653,-151.8 653,-151.8"/>
<polygon fill="black" stroke="black" points="649.5,-151.8 653,-161.8 656.5,-151.8 649.5,-151.8"/>
</g>
<!-- AppService -->
<g id="node4" class="node">
<title>AppService</title>
<ellipse fill="#fdb462" stroke="black" cx="241" cy="-180" rx="56.74" ry="18"/>
<text text-anchor="middle" x="241" y="-175.8" font-family="Times,serif" font-size="14.00">AppService</text>
</g>
<!-- AppService&#45;&gt;AppModule -->
<g id="edge3" class="edge">
<title>AppService&#45;&gt;AppModule</title>
<path fill="none" stroke="black" d="M241,-198.29C241,-220.21 241,-254 241,-254 241,-254 312.01,-254 312.01,-254"/>
<polygon fill="black" stroke="black" points="312.01,-257.5 322.01,-254 312.01,-250.5 312.01,-257.5"/>
</g>
<!-- AuthService  -->
<g id="node5" class="node">
<title>AuthService </title>
<polygon fill="#fb8072" stroke="black" points="843.98,-266 754.02,-266 754.02,-230 843.98,-230 843.98,-266"/>
<text text-anchor="middle" x="799" y="-243.8" font-family="Times,serif" font-size="14.00">AuthService </text>
</g>
<!-- AuthtModule -->
<g id="node6" class="node">
<title>AuthtModule</title>
<polygon fill="#8dd3c7" stroke="black" points="844.94,-198 841.94,-202 820.94,-202 817.94,-198 753.06,-198 753.06,-162 844.94,-162 844.94,-198"/>
<text text-anchor="middle" x="799" y="-175.8" font-family="Times,serif" font-size="14.00">AuthtModule</text>
</g>
<!-- AuthtModule&#45;&gt;AuthService  -->
<g id="edge4" class="edge">
<title>AuthtModule&#45;&gt;AuthService </title>
<path fill="none" stroke="black" stroke-dasharray="5,2" d="M799,-198.22C799,-198.22 799,-219.73 799,-219.73"/>
<polygon fill="black" stroke="black" points="795.5,-219.73 799,-229.73 802.5,-219.73 795.5,-219.73"/>
</g>
<!-- AuthService -->
<g id="node7" class="node">
<title>AuthService</title>
<ellipse fill="#fdb462" stroke="black" cx="799" cy="-104" rx="59.11" ry="18"/>
<text text-anchor="middle" x="799" y="-99.8" font-family="Times,serif" font-size="14.00">AuthService</text>
</g>
<!-- AuthService&#45;&gt;AuthtModule -->
<g id="edge5" class="edge">
<title>AuthService&#45;&gt;AuthtModule</title>
<path fill="none" stroke="black" d="M799,-122.01C799,-122.01 799,-151.85 799,-151.85"/>
<polygon fill="black" stroke="black" points="795.5,-151.85 799,-161.85 802.5,-151.85 795.5,-151.85"/>
</g>
<!-- PostsService -->
<g id="node8" class="node">
<title>PostsService</title>
<ellipse fill="#fdb462" stroke="black" cx="84" cy="-104" rx="60.27" ry="18"/>
<text text-anchor="middle" x="84" y="-99.8" font-family="Times,serif" font-size="14.00">PostsService</text>
</g>
<!-- PostsService&#45;&gt;PostModule -->
<g id="edge7" class="edge">
<title>PostsService&#45;&gt;PostModule</title>
<path fill="none" stroke="black" d="M141.12,-98C209.2,-98 313.88,-98 313.88,-98 313.88,-98 313.88,-180 313.88,-180 313.88,-180 314.71,-180 314.71,-180"/>
<polygon fill="black" stroke="black" points="312.16,-183.5 322.16,-180 312.16,-176.5 312.16,-183.5"/>
</g>
<!-- UsersService -->
<g id="node10" class="node">
<title>UsersService</title>
<ellipse fill="#fdb462" stroke="black" cx="520" cy="-180" rx="61.95" ry="18"/>
<text text-anchor="middle" x="520" y="-175.8" font-family="Times,serif" font-size="14.00">UsersService</text>
</g>
<!-- UsersService&#45;&gt;UserModule -->
<g id="edge9" class="edge">
<title>UsersService&#45;&gt;UserModule</title>
<path fill="none" stroke="black" d="M520,-161.97C520,-141.23 520,-110 520,-110 520,-110 418.18,-110 418.18,-110"/>
<polygon fill="black" stroke="black" points="418.18,-106.5 408.18,-110 418.18,-113.5 418.18,-106.5"/>
</g>
</g>
</svg>
